# Blender 4.0.2
# www.blender.org
mtllib EyeChart.mtl
o Cube_Cube.002
v -0.707501 -0.806860 0.096679
v -0.707501 1.202610 0.096679
v -0.876858 -1.000000 -0.096679
v -0.876858 1.395750 -0.096679
v 0.707501 -0.806860 0.096679
v 0.707501 1.202610 0.096679
v 0.876858 -1.000000 -0.096679
v 0.876858 1.395750 -0.096679
v -0.876858 -1.000000 0.096679
v -0.876858 1.395750 0.096679
v 0.876858 1.395750 0.096679
v 0.876858 -1.000000 0.096679
v -0.707501 -0.806860 0.056246
v -0.707501 1.202610 0.056246
v 0.707501 1.202610 0.056246
v 0.707501 -0.806860 0.056246
v -0.792179 -0.903430 0.089288
v -0.792179 1.299180 0.089288
v 0.792179 1.299180 0.089288
v 0.792179 -0.903430 0.089288
v -0.749840 -0.855145 0.096679
v 0.749840 1.250895 0.096679
v -0.749840 1.250895 0.096679
v 0.749840 -0.855145 0.096679
v -0.836858 1.350133 0.096679
v 0.836858 -0.954383 0.096679
v -0.836858 -0.954383 0.096679
v 0.836858 1.350133 0.096679
v -0.836858 1.202723 0.096679
v -0.749840 1.202723 0.096679
v -0.792179 1.202723 0.089288
v -0.876858 1.202722 0.096679
v -0.876858 1.202634 -0.096679
v 0.876858 1.202658 -0.096679
v 0.876858 1.202515 0.096679
v 0.749840 1.202436 0.096679
v 0.792179 1.202436 0.089288
v 0.836858 1.202436 0.096679
v 0.749840 -0.806751 0.096679
v 0.792179 -0.806751 0.089288
v 0.836858 -0.806751 0.096679
v 0.876858 -0.806751 0.096679
v 0.876858 -0.807244 -0.096679
v -0.876858 -0.807337 -0.096679
v -0.876858 -0.807393 0.096679
v -0.836858 -0.808354 0.096679
v -0.749840 -0.808355 0.096679
v -0.876858 -0.808253 0.096679
v -0.792179 -0.808355 0.089288
vn -1.0000 -0.0000 -0.0000
vn -0.0000 -0.0000 -1.0000
vn 1.0000 -0.0000 -0.0000
vn -0.0000 -1.0000 -0.0000
vn -0.0000 1.0000 -0.0000
vn -0.0000 -0.0000 1.0000
vn -0.0000 0.1513 0.9885
vn -0.0000 -0.1513 0.9885
vn 0.1720 -0.0000 0.9851
vn -0.1720 -0.0000 0.9851
vn -0.0000 -0.1436 0.9896
vn -0.0000 0.1436 0.9896
vn -0.1632 -0.0000 0.9866
vn 0.1632 -0.0000 0.9866
vt 0.375000 0.000000
vt 0.398968 0.000000
vt 0.399076 0.000000
vt 0.399083 0.250000
vt 0.375000 0.250000
vt 0.399094 0.500000
vt 0.375000 0.500000
vt 0.399156 0.750000
vt 0.375000 0.750000
vt 0.600857 0.774143
vt 0.600857 0.975857
vt 0.125000 0.500000
vt 0.125000 0.750000
vt 0.625000 0.500000
vt 0.875000 0.500000
vt 0.875000 0.750000
vt 0.625000 0.750000
vt 0.380702 0.994298
vt 0.398956 0.994298
vt 0.398968 1.000000
vt 0.375000 1.000000
vt 0.619298 0.755702
vt 0.600836 0.755702
vt 0.600846 0.750000
vt 0.380702 0.755702
vt 0.619298 0.994298
vt 0.625000 1.000000
vt 0.999250 0.003709
vt 0.999250 1.000836
vt 0.000751 1.000836
vt 0.000751 0.003709
vt 0.399143 0.774143
vt 0.399143 0.975857
vt 0.606893 0.981893
vt 0.606893 0.768107
vt 0.612929 0.762071
vt 0.612929 0.987929
vt 0.393107 0.768107
vt 0.393107 0.981893
vt 0.387071 0.987929
vt 0.387071 0.762071
vt 0.600836 0.768107
vt 0.600836 0.762071
vt 0.398956 0.981893
vt 0.398955 0.987929
vt 0.600872 0.987929
vt 0.600872 0.981893
vt 0.600872 0.994298
vt 0.600872 1.000000
vt 0.600861 0.250000
vt 0.600872 0.000000
vt 0.625000 0.000000
vt 0.625000 0.250000
vt 0.600864 0.500000
vt 0.399156 0.755702
vt 0.399156 0.762071
vt 0.399156 0.768107
vt 0.399076 1.000000
s 0
usemtl Frame
f 9/1/1 48/2/1 45/3/1 44/4/1 3/5/1
f 7/7/3 43/6/3 42/8/3 12/9/3
f 6/10/4 2/11/4 14/11/4 15/10/4
f 3/12/4 7/7/4 12/9/4 9/13/4
f 8/14/5 4/15/5 10/16/5 11/17/5
f 27/18/6 46/19/6 48/20/6 9/21/6
f 28/22/6 38/23/6 35/24/6 11/17/6
f 26/25/6 27/18/6 9/21/6 12/9/6
f 25/26/6 28/22/6 11/17/6 10/27/6
f 5/32/1 6/10/1 15/10/1 16/32/1
f 1/33/5 5/32/5 16/32/5 13/33/5
f 2/11/3 1/33/3 13/33/3 14/11/3
f 23/34/7 22/35/7 19/36/7 18/37/7
f 24/38/8 21/39/8 17/40/8 20/41/8
f 22/35/9 36/42/9 37/43/9 19/36/9
f 21/39/10 47/44/10 49/45/10 17/40/10
f 1/33/6 47/44/6 21/39/6
f 6/10/6 36/42/6 22/35/6
f 5/32/6 1/33/6 21/39/6 24/38/6
f 2/11/6 6/10/6 22/35/6 23/34/6
f 18/37/11 19/36/11 28/22/11 25/26/11
f 20/41/12 17/40/12 27/18/12 26/25/12
f 19/36/13 37/43/13 38/23/13 28/22/13
f 17/40/14 49/45/14 46/19/14 27/18/14
f 31/46/10 30/47/10 23/34/10 18/37/10
f 30/47/6 2/11/6 23/34/6
f 29/48/14 31/46/14 18/37/14 25/26/14
f 32/49/6 29/48/6 25/26/6 10/27/6
f 33/50/1 32/51/1 10/52/1 4/53/1
f 35/24/3 34/54/3 8/14/3 11/17/3
f 35/24/6 38/23/6 41/55/6 42/8/6
f 38/23/13 37/43/13 40/56/13 41/55/13
f 36/42/6 6/10/6 5/32/6 39/57/6
f 37/43/9 36/42/9 39/57/9 40/56/9
f 42/8/6 41/55/6 26/25/6 12/9/6
f 41/55/13 40/56/13 20/41/13 26/25/13
f 39/57/6 5/32/6 24/38/6
f 40/56/9 39/57/9 24/38/9 20/41/9
f 42/8/3 43/6/3 34/54/3 35/24/3
f 44/4/1 45/3/1 32/51/1 33/50/1
f 49/45/10 47/44/10 30/47/10 31/46/10
f 47/44/6 1/33/6 2/11/6 30/47/6
f 46/19/14 49/45/14 31/46/14 29/48/14
f 48/20/6 46/19/6 29/48/6 32/49/6 45/58/6
usemtl Image
f 16/28/6 15/29/6 14/30/6 13/31/6
usemtl Back
f 3/5/2 44/4/2 43/6/2 7/7/2
f 34/54/2 33/50/2 4/53/2 8/14/2
f 43/6/2 44/4/2 33/50/2 34/54/2
